<?xml version="1.0" encoding="UTF-8"?>
<svg version="1.1" xmlns="http://www.w3.org/2000/svg" width="537" height="538">
<path d="M0 0 C177.21 0 354.42 0 537 0 C537 177.54 537 355.08 537 538 C359.79 538 182.58 538 0 538 C0 360.46 0 182.92 0 0 Z " fill="#FEFEFE" transform="translate(0,0)"/>
<path d="M0 0 C0.67384232 -0.00686325 1.34768463 -0.0137265 2.04194641 -0.02079773 C4.2587317 -0.03902678 6.47480658 -0.03523406 8.69165039 -0.02954102 C10.23955006 -0.03410483 11.7874477 -0.039411 13.33534241 -0.04542542 C16.575859 -0.05434892 19.81612905 -0.05194234 23.05664062 -0.04199219 C27.20057498 -0.03050526 31.34365683 -0.05071276 35.48747921 -0.07990932 C38.68320584 -0.09829392 41.87872905 -0.0979744 45.07449532 -0.0922718 C46.60185504 -0.09211885 48.12922879 -0.09814149 49.65653801 -0.11056328 C51.79630198 -0.12551482 53.93450226 -0.11476837 56.07421875 -0.09765625 C57.28935654 -0.09749008 58.50449432 -0.09732391 59.75645447 -0.09715271 C64.51585212 0.61590705 67.57916636 2.83828757 70.89477539 6.24780273 C72.49025387 9.09797789 72.89008107 11.68024375 73.41430664 14.90405273 C76.53984566 32.04348813 82.49022499 47.78342699 90.10180664 63.40405273 C90.91391602 65.10754883 90.91391602 65.10754883 91.74243164 66.84545898 C99.23265739 81.65567809 109.34907767 95.26679331 120.96899414 107.06811523 C123.10180664 109.40405273 123.10180664 109.40405273 123.10180664 111.40405273 C124.09180664 111.73405273 125.08180664 112.06405273 126.10180664 112.40405273 C128.39020702 115.41510586 128.52494983 118.66324703 128.41430664 122.37670898 C127.88191191 125.8306198 126.38318087 127.82249769 124.10180664 130.40405273 C120.06174537 133.0388753 116.89371535 134.2665963 112.10180664 133.40405273 C105.94231492 129.96531809 101.48739054 124.81266003 97.10180664 119.40405273 C96.65788574 118.86570801 96.21396484 118.32736328 95.7565918 117.77270508 C86.50403242 106.54683656 78.4856023 94.95650536 71.10180664 82.40405273 C71.10180664 89.99405273 71.10180664 97.58405273 71.10180664 105.40405273 C77.0317906 108.3950795 77.0317906 108.3950795 82.97705078 111.35546875 C88.66834199 114.28837798 92.87528055 117.60728676 97.10180664 122.40405273 C97.77469727 123.16073242 98.44758789 123.91741211 99.14086914 124.69702148 C99.66422852 125.3222168 100.18758789 125.94741211 100.72680664 126.59155273 C103.3260199 129.57198393 105.71918299 132.28991295 109.10180664 134.40405273 C110.23618164 134.44530273 111.37055664 134.48655273 112.53930664 134.52905273 C116.10180664 135.40405273 116.10180664 135.40405273 117.84790039 137.61108398 C119.37304336 140.1676186 120.77962678 142.73750878 122.10180664 145.40405273 C122.43180664 146.06405273 122.76180664 146.72405273 123.10180664 147.40405273 C123.79756056 155.35389674 123.78952686 162.68673299 119.10180664 169.40405273 C114.5088655 174.49537684 109.93564581 178.03698605 102.8737793 178.57324219 C100.3630506 178.63619852 97.86299962 178.62786374 95.35180664 178.59155273 C94.48942383 178.5909082 93.62704102 178.59026367 92.73852539 178.58959961 C86.38339146 178.54484515 86.38339146 178.54484515 84.10180664 177.40405273 C84.15981445 176.34186523 84.21782227 175.27967773 84.27758789 174.18530273 C84.95093285 164.01532818 84.95093285 164.01532818 80.80712891 155.08666992 C74.71592516 149.07656595 65.78836021 146.69531373 57.85180664 144.15405273 C56.78961914 143.80342773 55.72743164 143.45280273 54.63305664 143.09155273 C50.13869454 141.62354501 45.7584192 140.25625702 41.10180664 139.40405273 C41.10180664 139.07405273 41.10180664 138.74405273 41.10180664 138.40405273 C44.07180664 138.07405273 47.04180664 137.74405273 50.10180664 137.40405273 C40.03899049 132.12107426 31.44651606 129.64658037 20.10180664 131.40405273 C15.4984905 132.8400959 11.27366257 135.00380686 7.10180664 137.40405273 C8.12274414 137.41823242 9.14368164 137.43241211 10.19555664 137.44702148 C30.91656618 138.01694626 61.89873604 141.42179114 77.96508789 156.10717773 C82.01048611 160.68266261 82.91946607 164.67364695 82.55883789 170.72045898 C81.63599791 176.13918606 79.5948268 179.91103257 75.72680664 183.77905273 C70.49618367 187.01705743 65.22432978 188.39933975 59.10180664 187.40405273 C55.87313274 186.31627133 52.74201514 185.05856725 49.58618164 183.77514648 C34.06168595 177.66629224 18.33783201 176.03757973 1.78930664 176.15405273 C0.78007645 176.15671143 0.78007645 176.15671143 -0.24954224 176.15942383 C-8.88150787 176.18598412 -17.36636661 176.54656285 -25.92626953 177.68115234 C-35.81215204 178.98057613 -46.88029997 180.33837176 -55.89819336 175.40405273 C-61.22577719 170.92403906 -65.5268045 165.48402461 -66.17163086 158.40014648 C-66.39642985 150.52353572 -66.18083025 143.65411228 -60.89819336 137.40405273 C-58.94233973 136.23535991 -57.27527877 135.60010899 -55.05834961 135.09936523 C-49.15241739 133.19835993 -45.17627817 128.86176479 -41.21069336 124.34155273 C-39.44196857 122.36048445 -37.67033792 120.38206652 -35.89819336 118.40405273 C-35.43541992 117.87166992 -34.97264648 117.33928711 -34.49584961 116.79077148 C-31.92204977 114.55678874 -28.97462434 112.95418923 -26.02319336 111.27905273 C-25.10473633 110.73958008 -25.10473633 110.73958008 -24.16772461 110.18920898 C-20.5866299 108.14177368 -18.03631253 107.23167657 -13.89819336 106.40405273 C-14.22819336 98.81405273 -14.55819336 91.22405273 -14.89819336 83.40405273 C-15.80569336 85.05405273 -16.71319336 86.70405273 -17.64819336 88.40405273 C-25.68578167 102.1619408 -40.58036153 127.3176899 -55.89819336 133.40405273 C-61.59208801 133.22329417 -64.79562843 132.62728134 -68.89819336 128.40405273 C-71.18489087 125.35512272 -71.32520061 122.18410712 -71.20678711 118.41577148 C-70.34399212 112.79122186 -65.68460369 109.13846961 -61.81225586 105.36499023 C-54.50859943 97.88246875 -48.71598594 89.05155205 -42.89819336 80.40405273 C-42.30135742 79.54424805 -41.70452148 78.68444336 -41.08959961 77.79858398 C-28.32263977 58.78082625 -19.47409849 35.57386679 -16.66381836 12.86499023 C-15.58940515 8.008204 -13.70221466 4.74789822 -9.68968201 1.75889587 C-6.25837599 0.09351872 -3.80882354 0.01694664 0 0 Z " fill="#020202" transform="translate(239.898193359375,220.595947265625)"/>
<path d="M0 0 C7.84078063 5.81436266 13.55629246 12.39972038 16 22 C17.3002952 34.09274533 15.33030356 43.66876508 7.69921875 53.18359375 C1.36607865 59.95350213 -6.63762071 64.53804679 -15.9921875 65.125 C-27.11388598 65.43286709 -35.00138868 62.56254206 -43.203125 54.95703125 C-51.41071622 46.36945896 -53.62807049 38.25494202 -53.5456543 26.62231445 C-53.28851387 20.15988022 -51.80193092 15.30795896 -48 10 C-47.2575 8.9275 -46.515 7.855 -45.75 6.75 C-33.25980258 -5.74019742 -15.57224885 -9.95725527 0 0 Z " fill="#020202" transform="translate(287,146)"/>
<path d="M0 0 C4.29 0 8.58 0 13 0 C13.31453125 0.96679688 13.6290625 1.93359375 13.953125 2.9296875 C16.72641956 11.45046248 16.72641956 11.45046248 19.9375 19.8125 C21.9168357 24.61829451 23.59194212 29.51382065 25.25 34.4375 C25.52062256 35.23196533 25.79124512 36.02643066 26.07006836 36.8449707 C26.4453064 37.97165161 26.4453064 37.97165161 26.828125 39.12109375 C27.0540332 39.7958374 27.27994141 40.47058105 27.51269531 41.16577148 C28 43 28 43 28 46 C24.7 46 21.4 46 18 46 C15 39.5 15 39.5 15 35 C6.585 35.495 6.585 35.495 -2 36 C-2.309375 37.464375 -2.61875 38.92875 -2.9375 40.4375 C-3.875 44.875 -3.875 44.875 -5 46 C-6.85287502 46.07226502 -8.70833878 46.0838122 -10.5625 46.0625 C-11.57441406 46.05347656 -12.58632813 46.04445313 -13.62890625 46.03515625 C-14.41136719 46.02355469 -15.19382812 46.01195312 -16 46 C-14.01441724 39.98731511 -11.96807824 33.99927211 -9.86328125 28.02734375 C-9.57897751 27.21882462 -9.29467377 26.41030548 -9.00175476 25.57728577 C-8.10602252 23.03044854 -7.20927984 20.48396851 -6.3125 17.9375 C-5.69980252 16.19598721 -5.08717171 14.45445096 -4.47460938 12.71289062 C-2.98384254 8.47498919 -1.49217028 4.23740747 0 0 Z " fill="#6E7FE0" transform="translate(350,439)"/>
<path d="M0 0 C-0.66 1.65 -1.32 3.3 -2 5 C-3.11375 4.67 -4.2275 4.34 -5.375 4 C-11.52259862 2.49846264 -18.00664378 1.66006744 -23.875 4.5 C-27.79896568 7.17163621 -29.75439591 10.45980996 -31 15 C-31.84637214 21.4917616 -31.77094663 27.66419732 -28.296875 33.375 C-25.87425854 36.41056761 -23.7101778 38.06345026 -20 39 C-14.97314531 39.31093947 -10.02793528 39.23295453 -5 39 C-5 34.38 -5 29.76 -5 25 C-8.63 25 -12.26 25 -16 25 C-16 23.35 -16 21.7 -16 20 C-10.39 20 -4.78 20 1 20 C1 27.59 1 35.18 1 43 C-8.67086066 45.41771517 -19.02347907 47.34771459 -28 42 C-32.89585692 38.81200015 -35.82482298 34.74489745 -37.5859375 29.1328125 C-39.1319605 21.16933554 -38.51826346 14.19563596 -34.484375 7.125 C-26.14133944 -4.81871406 -12.42393492 -5.15363226 0 0 Z " fill="#8781CE" transform="translate(178,441)"/>
<path d="M0 0 C4.54455545 2.51486965 6.68948192 5.37896383 9 10 C9 12.97 9 15.94 9 19 C1.41 19 -6.18 19 -14 19 C-12.89451194 26.55186502 -12.89451194 26.55186502 -9.8125 29 C-4.21570555 30.98997136 1.25331388 29.93823447 7 29 C7 30.65 7 32.3 7 34 C1.22103772 36.60783496 -5.00565865 37.28991574 -11.12890625 35.3125 C-15.39920521 33.0989541 -17.74461583 30.16378616 -20 26 C-21.75982867 20.1890221 -21.92163807 14.32935644 -19.375 8.75 C-14.76503408 0.77428042 -9.00509802 -1.86627394 0 0 Z " fill="#8781CE" transform="translate(322,450)"/>
<path d="M0 0 C4.40608743 2.16298837 7.1987497 4.39680479 9 9 C9 12.3 9 15.6 9 19 C-1.89 19.495 -1.89 19.495 -13 20 C-12.72577418 26.54825487 -12.72577418 26.54825487 -10.27734375 28.921875 C-7.51684937 30.22872997 -5.60813004 30.3344835 -2.5625 30.25 C-1.63566406 30.23453125 -0.70882812 30.2190625 0.24609375 30.203125 C2.90617325 30.00692055 5.40031954 29.58504606 8 29 C8 30.65 8 32.3 8 34 C2.44536284 36.40200526 -3.04767826 36.7185366 -9 36 C-13.45146251 33.81473658 -16.18885145 31.0605479 -19 27 C-21.01627529 20.95117414 -21.4797404 13.24386088 -18.80078125 7.37109375 C-13.71402295 0.41363844 -8.44780447 -1.08099868 0 0 Z " fill="#8881CE" transform="translate(207,450)"/>
<path d="M0 0 C0.33 0 0.66 0 1 0 C1.14695312 1.16015625 1.14695312 1.16015625 1.296875 2.34375 C2.80840631 12.94571922 2.80840631 12.94571922 8.6796875 21.609375 C11.77694641 23.46564465 14.71433151 24.0000089 18.25 24.6875 C19.51328125 24.93886719 20.7765625 25.19023437 22.078125 25.44921875 C23.04234375 25.63097656 24.0065625 25.81273437 25 26 C22.15333071 27.89777953 20.85888655 28.35804934 17.625 28.9375 C13.88057368 29.69856226 11.20418704 30.86387531 8 33 C7.34 33 6.68 33 6 33 C3.8915995 39.60632156 2.23416987 46.17576662 1 53 C0.67 53 0.34 53 0 53 C-0.14695312 51.83984375 -0.14695312 51.83984375 -0.296875 50.65625 C-1.50738762 41.2003493 -1.50738762 41.2003493 -6 33 C-10.31035993 30.41127071 -14.46718156 29.28480365 -19.375 28.3125 C-20.62023437 28.06113281 -21.86546875 27.80976563 -23.1484375 27.55078125 C-24.08945312 27.36902344 -25.03046875 27.18726563 -26 27 C-26 26.67 -26 26.34 -26 26 C-25.21496094 25.89042969 -24.42992187 25.78085938 -23.62109375 25.66796875 C-13.81609425 24.23911335 -13.81609425 24.23911335 -5.1875 19.625 C-2.23675138 15.58713347 -1.56187453 11.04468418 -0.875 6.1875 C-0.70742188 5.02605469 -0.53984375 3.86460938 -0.3671875 2.66796875 C-0.24601562 1.78753906 -0.12484375 0.90710938 0 0 Z " fill="#A775BB" transform="translate(310,108)"/>
<path d="M0 0 C1.51843099 0.80900686 3.02142135 1.64689787 4.52050781 2.49121094 C4.52050781 2.82121094 4.52050781 3.15121094 4.52050781 3.49121094 C2.87050781 3.82121094 1.22050781 4.15121094 -0.47949219 4.49121094 C0.30176025 4.73766357 1.0830127 4.98411621 1.88793945 5.23803711 C4.8191391 6.16931838 7.74643163 7.11182204 10.67163086 8.06176758 C12.54754718 8.66726516 14.42755816 9.26002964 16.30761719 9.85253906 C25.1695349 12.74281411 32.75934941 15.64892128 37.64941406 24.03417969 C39.68682725 29.78096396 39.43593758 36.74492163 37.52050781 42.49121094 C38.18050781 42.82121094 38.84050781 43.15121094 39.52050781 43.49121094 C37.54050781 43.16121094 35.56050781 42.83121094 33.52050781 42.49121094 C33.75447266 41.66363281 33.75447266 41.66363281 33.99316406 40.81933594 C35.16996163 35.6239926 35.6235766 30.17655052 33.56738281 25.17089844 C29.58641247 19.15368465 24.11404054 16.89407796 17.52050781 14.49121094 C16.46347656 14.08257812 15.40644531 13.67394531 14.31738281 13.25292969 C-3.32977446 6.86275951 -21.74926199 3.73417383 -40.47949219 3.49121094 C-29.68347455 -8.42284089 -12.91063628 -6.57952012 0 0 Z " fill="#EFEFEF" transform="translate(286.4794921875,355.5087890625)"/>
<path d="M0 0 C3.3 0 6.6 0 10 0 C10 15.18 10 30.36 10 46 C6.7 46 3.4 46 0 46 C0 30.82 0 15.64 0 0 Z " fill="#7181E0" transform="translate(384,439)"/>
<path d="M0 0 C3.67547793 2.1002731 5.4612031 4.10958418 7 8 C7.22705078 10.93261719 7.22705078 10.93261719 7.1953125 14.296875 C7.18886719 15.50214844 7.18242187 16.70742188 7.17578125 17.94921875 C7.15902344 19.20347656 7.14226562 20.45773437 7.125 21.75 C7.11597656 23.01972656 7.10695312 24.28945313 7.09765625 25.59765625 C7.07409005 28.73196093 7.04118832 31.86588541 7 35 C5.02 35 3.04 35 1 35 C0.98018066 34.19256348 0.96036133 33.38512695 0.93994141 32.55322266 C0.84494101 28.91014125 0.73516088 25.26765314 0.625 21.625 C0.5940625 20.35398437 0.563125 19.08296875 0.53125 17.7734375 C0.49257812 16.56171875 0.45390625 15.35 0.4140625 14.1015625 C0.3826416 12.98088379 0.3512207 11.86020508 0.31884766 10.70556641 C0.26588797 7.85289588 0.26588797 7.85289588 -2 6 C-4.33404054 5.642852 -4.33404054 5.642852 -6.9375 5.6875 C-7.81277344 5.67074219 -8.68804687 5.65398437 -9.58984375 5.63671875 C-12.00495065 5.83002179 -12.00495065 5.83002179 -13.75390625 7.14453125 C-17.08960162 12.11147577 -16.3096639 19.56391467 -16.5625 25.375 C-16.60568359 26.30183594 -16.64886719 27.22867187 -16.69335938 28.18359375 C-16.79876186 30.45560294 -16.90088606 32.72770925 -17 35 C-18.65 35 -20.3 35 -22 35 C-22 23.78 -22 12.56 -22 1 C-20.68 1 -19.36 1 -18 1 C-18 2.32 -18 3.64 -18 5 C-17.071875 4.175 -16.14375 3.35 -15.1875 2.5 C-10.42941506 -0.90140084 -5.64889203 -0.95166805 0 0 Z " fill="#867FCE" transform="translate(247,450)"/>
<path d="M0 0 C3.16176516 3.16176516 5.22612472 6.51539685 7.5 10.3125 C14.49737504 21.7298836 22.73303271 31.83979004 31.828125 41.64453125 C34.32527901 44.35277562 36.68059902 47.13940546 39 50 C38.01 50.66 37.02 51.32 36 52 C34.64242826 50.6701338 33.28916504 49.33586929 31.9375 48 C31.18339844 47.2575 30.42929687 46.515 29.65234375 45.75 C27 43 27 43 25.49633789 41.11328125 C20.92157323 35.43622066 16.00759447 32.29643093 9.5625 29 C6.406875 27.35 3.25125 25.7 0 24 C0 16.08 0 8.16 0 0 Z " fill="#EDEDED" transform="translate(310,302)"/>
<path d="M0 0 C0.33 0 0.66 0 1 0 C1 7.92 1 15.84 1 24 C-1.536875 25.27875 -4.07375 26.5575 -6.6875 27.875 C-7.47729248 28.27444824 -8.26708496 28.67389648 -9.08081055 29.08544922 C-9.71801025 29.40529785 -10.35520996 29.72514648 -11.01171875 30.0546875 C-11.69927246 30.39983398 -12.38682617 30.74498047 -13.09521484 31.10058594 C-15 32 -15 32 -17.89453125 33.0078125 C-20.60118048 34.28330212 -20.76429588 35.30809437 -22 38 C-23.82370011 40.31236493 -25.81584437 42.4617552 -27.8125 44.625 C-28.59463867 45.50285156 -28.59463867 45.50285156 -29.39257812 46.3984375 C-32.35314053 49.62142179 -34.66727605 51.76665529 -39 53 C-39 49 -39 49 -37.56640625 47.4296875 C-36.90511719 46.91664063 -36.24382812 46.40359375 -35.5625 45.875 C-21.603536 34.2629021 -11.17866231 18.5095858 -2 3 C-1.34 2.01 -0.68 1.02 0 0 Z " fill="#F3F3F3" transform="translate(225,303)"/>
<path d="M0 0 C1.32 0 2.64 0 4 0 C4 2.31 4 4.62 4 7 C7.3 7 10.6 7 14 7 C14 8.65 14 10.3 14 12 C10.7 12 7.4 12 4 12 C4.33 20.25 4.66 28.5 5 37 C7.97 37.33 10.94 37.66 14 38 C13.67 39.65 13.34 41.3 13 43 C5.23214286 43.66964286 5.23214286 43.66964286 1.5625 40.6875 C-1.94245438 37.01157224 -2.12463159 34.55831735 -2.09765625 29.67578125 C-2.09282227 28.13374023 -2.09282227 28.13374023 -2.08789062 26.56054688 C-2.07951172 25.48869141 -2.07113281 24.41683594 -2.0625 23.3125 C-2.05798828 22.22904297 -2.05347656 21.14558594 -2.04882812 20.02929688 C-2.03703743 17.35280915 -2.02058063 14.67643223 -2 12 C-3.32 12 -4.64 12 -6 12 C-5.6875 10.0625 -5.6875 10.0625 -5 8 C-4.01 7.67 -3.02 7.34 -2 7 C-0.77030122 3.48809191 -0.77030122 3.48809191 0 0 Z " fill="#8983CE" transform="translate(266,443)"/>
<path d="M0 0 C1.98 0 3.96 0 6 0 C6 16.17 6 32.34 6 49 C4.02 49 2.04 49 0 49 C0 32.83 0 16.66 0 0 Z " fill="#8A84CF" transform="translate(287,436)"/>
<path d="M0 0 C0.33 0 0.66 0 1 0 C1.12117188 0.67546875 1.24234375 1.3509375 1.3671875 2.046875 C1.53476562 2.93890625 1.70234375 3.8309375 1.875 4.75 C2.11863281 6.07257813 2.11863281 6.07257813 2.3671875 7.421875 C3.20001316 10.81486841 3.79433503 13.20845474 6.796875 15.1796875 C9.26874306 16.1000639 11.65645593 16.64724188 14.25 17.125 C15.14203125 17.29257813 16.0340625 17.46015625 16.953125 17.6328125 C17.62859375 17.75398438 18.3040625 17.87515625 19 18 C19 18.33 19 18.66 19 19 C18.41992188 19.02578125 17.83984375 19.0515625 17.2421875 19.078125 C11.8426101 19.47017352 7.93133444 19.97506236 4 24 C2.61577261 27.93770745 1.73566752 31.89574965 1 36 C-1.31327084 33.68672916 -1.36356952 32.76664438 -1.875 29.625 C-2.48491578 26.76802608 -2.96861062 25.04896744 -4.5625 22.5625 C-8.12653363 20.27786306 -11.86053569 19.6722207 -16 19 C-15.67 18.34 -15.34 17.68 -15 17 C-12.7591427 16.39737901 -10.51429025 16.04392817 -8.2265625 15.66015625 C-5.56597714 14.87131603 -4.62498715 14.24701487 -3 12 C-1.99061248 9.04964438 -1.99061248 9.04964438 -1.3125 5.8125 C-1.06113281 4.72582031 -0.80976563 3.63914062 -0.55078125 2.51953125 C-0.36902344 1.68808594 -0.18726563 0.85664062 0 0 Z " fill="#8680CF" transform="translate(291,89)"/>
<path d="M0 0 C1.8572168 0.00676758 1.8572168 0.00676758 3.75195312 0.01367188 C6.77218785 0.02533301 9.79231677 0.04169764 12.8125 0.0625 C12.8125 0.7225 12.8125 1.3825 12.8125 2.0625 C9.89293686 3.03568771 6.97308399 4.00771257 4.05078125 4.97265625 C2.12270943 5.62154894 0.2005577 6.28925071 -1.70703125 6.99609375 C-7.22899484 9.01726781 -12.41356403 10.51115653 -18.171875 8.30078125 C-21.79230285 6.40828487 -23.59059031 4.75244666 -25.1875 1.0625 C-16.77257941 0.10716472 -8.46315022 -0.05931049 0 0 Z " fill="#141414" transform="translate(244.1875,398.9375)"/>
<path d="M0 0 C6.95716183 1.22096194 13.52630646 2.97263417 20.1875 5.3125 C21.03763672 5.59544922 21.88777344 5.87839844 22.76367188 6.16992188 C30.39896222 8.82900755 36.93864179 12.35769559 41.12890625 19.54296875 C43.16631943 25.28975302 42.91542977 32.2537107 41 38 C41.99 38.495 41.99 38.495 43 39 C40.03 38.505 40.03 38.505 37 38 C37.23396484 37.17242187 37.23396484 37.17242187 37.47265625 36.328125 C38.64945382 31.13278166 39.10306879 25.68533958 37.046875 20.6796875 C29.57615705 9.38774026 10.55365821 5.81816817 -2 3 C-1.34 2.01 -0.68 1.02 0 0 Z " fill="#E4E4E4" transform="translate(283,360)"/>
<path d="M0 0 C2.875 2.125 2.875 2.125 5 5 C5 6.98 5 8.96 5 11 C-0.94 11 -6.88 11 -13 11 C-12 5 -12 5 -9.3125 2.125 C-5.66321982 -0.21604766 -4.22122772 -0.89813356 0 0 Z " fill="#D6D6DD" transform="translate(320,454)"/>
<path d="M0 0 C2.875 2.1875 2.875 2.1875 5 5 C5 6.65 5 8.3 5 10 C-0.61 10 -6.22 10 -12 10 C-11 4 -11 4 -8.8125 1.625 C-5.43695612 -0.32531424 -3.83305454 -0.71869773 0 0 Z " fill="#DCDCDE" transform="translate(205,454)"/>
<path d="M0 0 C2.5872505 2.5872505 3.06556087 4.88277471 4.125 8.375 C4.47820312 9.51710938 4.83140625 10.65921875 5.1953125 11.8359375 C6 15 6 15 6 19 C2.37 19 -1.26 19 -5 19 C-4.39297368 12.3227105 -2.22368606 6.29872004 0 0 Z " fill="#C5C6CD" transform="translate(356,447)"/>
<path d="M0 0 C0.33 0.99 0.66 1.98 1 3 C0.56429687 3.42410156 0.12859375 3.84820312 -0.3203125 4.28515625 C-3.4303509 7.34807286 -6.38289505 10.4134324 -9.125 13.8125 C-11.46113991 16.61335592 -13.38878308 18.04408964 -17 19 C-17 15 -17 15 -15.4609375 13.32421875 C-14.77257812 12.78410156 -14.08421875 12.24398438 -13.375 11.6875 C-9.90653622 8.84520137 -7.08375287 5.90932315 -4.32421875 2.3828125 C-3 1 -3 1 0 0 Z " fill="#E1E1E1" transform="translate(203,337)"/>
<path d="M0 0 C2.66666667 2.66666667 5.33333333 5.33333333 8 8 C7.01 8.66 6.02 9.32 5 10 C3.96468274 9.09972412 2.94705835 8.17906965 1.9375 7.25 C1.36902344 6.73953125 0.80054688 6.2290625 0.21484375 5.703125 C-1 4 -1 4 -0.68359375 1.796875 C-0.45800781 1.20390625 -0.23242188 0.6109375 0 0 Z " fill="#E3E3E3" transform="translate(341,344)"/>
<path d="M0 0 C0 0.33 0 0.66 0 1 C-1.98 1.33 -3.96 1.66 -6 2 C-5.34 2.66 -4.68 3.32 -4 4 C-11.38461538 4.36923077 -11.38461538 4.36923077 -14.5 2.5 C-14.995 2.005 -15.49 1.51 -16 1 C-10.59255982 0.22750855 -5.46137814 -0.09752461 0 0 Z " fill="#BCBCBC" transform="translate(234,396)"/>
<path d="M0 0 C0.33 0 0.66 0 1 0 C1 2.31 1 4.62 1 7 C1.66 7 2.32 7 3 7 C2.67 8.98 2.34 10.96 2 13 C2.66 13.33 3.32 13.66 4 14 C1.03 13.505 1.03 13.505 -2 13 C-1.34 8.71 -0.68 4.42 0 0 Z " fill="#D4D4D4" transform="translate(322,385)"/>
<path d="M0 0 C3.3 0.66 6.6 1.32 10 2 C9.01 3.485 9.01 3.485 8 5 C4.7 4.34 1.4 3.68 -2 3 C-1.34 2.01 -0.68 1.02 0 0 Z " fill="#DCDCDC" transform="translate(283,360)"/>
</svg>
